<svg width="60" height="80" viewBox="0 0 60 80" fill="none" xmlns="http://www.w3.org/2000/svg">
<path d="M14.9594 0C17.0971 0.307483 17.8791 1.4966 19.1779 3.25932C20.3207 4.97034 21.2492 6.75701 22.1362 8.63946C22.3243 9.03456 22.5124 9.42966 22.7064 9.83674C24.8124 14.3869 27.3332 19.8667 27.3332 25.034C27.888 25.0835 27.888 25.0835 28.4548 25.1341C28.9418 25.1793 29.4293 25.225 29.9317 25.2724C30.4143 25.3165 30.8963 25.3605 31.3933 25.4063C32.5624 25.5516 33.6285 25.7709 34.7575 26.1224C34.7575 25.4041 34.7575 24.6857 34.7575 23.9456C38.4409 23.7464 38.4409 23.7464 39.707 24.6596C40.2019 25.5782 40.2019 25.5782 40.2019 27.2109C40.7385 27.2773 41.275 27.3442 41.8279 27.4128C53.6864 29.0852 53.6864 29.0852 56.5047 32.0185C57.941 34.129 60 37.5467 60 40.2721C55.4153 39.8928 50.9191 39.1309 46.3869 38.2982C43.2885 37.7508 40.3702 37.4378 37.2322 37.551C37.0689 37.1918 36.9056 36.8327 36.7373 36.4626C35.7182 36.2286 35.7182 36.2286 34.5407 36.1567C32.3753 35.969 32.3753 35.969 31.2928 35.3742C31.3735 35.7333 31.4542 36.092 31.5373 36.462C32.3733 40.1867 33.2083 43.9118 34.0418 47.6376C34.3536 49.0291 34.6654 50.4207 34.9782 51.8122C35.4261 53.8084 35.8731 55.8052 36.3195 57.8019C36.5309 58.7396 36.5309 58.7396 36.7462 59.6969C36.8749 60.2743 37.0036 60.8517 37.1367 61.4465C37.251 61.9565 37.3654 62.4664 37.4827 62.9916C37.7272 64.2177 37.7272 64.2177 37.7272 65.3061C38.2068 65.3622 38.6869 65.4182 39.1813 65.4759C44.9109 66.4604 44.9109 66.4604 46.4799 68.6416C48.1212 71.8269 48.1212 71.8269 48.1212 73.4694C44.9045 73.1886 41.8541 72.671 38.7171 71.8367C38.7171 72.7347 38.7171 73.6327 38.7171 74.5578C38.2271 74.5578 37.7371 74.5578 37.2322 74.5578C37.0689 74.1986 36.9056 73.8395 36.7373 73.4694C34.508 73.9342 33.2578 75.3616 31.664 77.0405C31.2527 77.4656 31.2527 77.4656 30.8325 77.8988C30.1579 78.5954 29.4877 79.2974 28.818 80C27.5391 77.8906 27.5114 76.4294 27.5322 73.9347C27.9816 71.5744 29.2046 70.5039 30.8731 69.0351C32.0174 67.7742 32.1174 67.0623 32.2827 65.3061C31.9932 64.0044 31.9932 64.0044 31.4378 62.7162C31.2413 62.2188 31.0448 61.7214 30.8424 61.2087C30.5157 60.4136 30.5157 60.4136 30.1831 59.6027C29.9639 59.0531 29.7446 58.5039 29.5184 57.938C28.8171 56.1845 28.1063 54.4359 27.3951 52.6868C26.9194 51.5031 26.4448 50.3184 25.9701 49.1336C24.0017 44.1219 24.0017 44.1219 21.8887 39.1837C21.2329 39.7535 20.585 40.3336 19.9396 40.9186C19.5783 41.2403 19.2165 41.5625 18.8438 41.8939C17.7821 43.1701 17.6019 44.0185 17.4342 45.7143C17.0634 45.7703 16.6927 45.8264 16.3106 45.8841C14.8277 46.295 14.2373 46.7543 13.134 47.8912C12.7955 48.2335 12.4569 48.5758 12.1075 48.9284C11.7422 49.3045 11.3764 49.6805 10.9998 50.068C10.1762 50.886 9.3511 51.7023 8.52503 52.517C7.3114 53.7176 6.09828 54.9181 4.8901 56.1246C4.53819 56.4718 4.18578 56.819 3.82298 57.1766C3.51166 57.4863 3.20034 57.7954 2.87961 58.1143C2.09065 58.7755 2.09065 58.7755 1.10075 58.7755C0.933456 57.7442 0.768638 56.7124 0.605799 55.68C0.513737 55.1059 0.422171 54.5312 0.327636 53.939C-0.179195 49.9755 -0.179195 49.9755 0.911184 48.2781C1.27992 47.8585 1.64866 47.4389 2.02878 47.0068C2.43019 46.5366 2.8316 46.0669 3.24488 45.5826C3.91554 44.8201 4.5867 44.0582 5.2623 43.3007C5.95326 42.5241 6.6358 41.7382 7.31833 40.9524C7.73756 40.4838 8.15678 40.0152 8.58887 39.5325C9.70747 37.7965 9.57977 36.905 9.51493 34.8299C10.3613 33.5712 11.2824 33.0079 12.4846 32.1088C12.8113 32.1088 13.138 32.1088 13.4745 32.1088C13.4745 32.6476 13.4745 33.1864 13.4745 33.7415C14.1041 33.1412 14.7332 32.5404 15.3613 31.939C15.7117 31.6044 16.0621 31.2697 16.423 30.9246C17.2867 30.0767 18.1048 29.2038 18.919 28.2993C18.8269 28.0071 18.7349 27.7143 18.6399 27.4133C17.69 24.3467 16.8758 21.2637 16.1349 18.129C16.0275 17.6854 15.9206 17.2419 15.8102 16.7848C14.8614 12.8016 14.3833 9.1151 14.4026 5.00027C14.3996 4.3668 14.3996 4.3668 14.3966 3.72136C14.4016 0.613333 14.4016 0.613333 14.9594 0Z" fill="white"/>
</svg>
