<svg width="16" height="18" viewBox="0 0 16 18" fill="none" xmlns="http://www.w3.org/2000/svg">
<path d="M10.6954 1.95849C10.8962 1.40581 11.0216 0.929442 11.0216 0.477172C11.0216 0.40166 10.9967 0.351854 10.9967 0.276342C10.9967 0.20083 10.9717 0.100415 10.946 0C9.69045 0.276342 8.81242 0.828223 8.25974 1.63154C7.70706 2.40996 7.43152 3.3386 7.40581 4.41826C7.85808 4.36765 8.23403 4.29294 8.51038 4.21743C8.88713 4.09211 9.28879 3.84068 9.69045 3.46392C10.1427 3.01165 10.4938 2.45977 10.6946 1.95769L10.6954 1.95849ZM9.26389 4.46887C8.51038 4.72031 7.9834 4.82073 7.70706 4.82073C7.48132 4.82073 7.00415 4.72031 6.22573 4.51948C5.47222 4.29375 4.84482 4.16763 4.29294 4.16763C3.06306 4.16763 2.0332 4.6946 1.20498 5.74936C0.40166 6.80412 0 8.13442 0 9.79087C0 11.5734 0.526978 13.3809 1.58174 15.2382C2.6614 17.0963 3.76597 18 4.84563 18C5.19748 18 5.64895 17.8747 6.27634 17.6481C6.85393 17.4224 7.35601 17.2963 7.80747 17.2963C8.25894 17.2963 8.81162 17.3967 9.43901 17.6224C10.0921 17.8482 10.5942 17.9486 10.9701 17.9486C11.8988 17.9486 12.8282 17.2457 13.7569 15.8648C14.0581 15.4125 14.3344 14.9361 14.5602 14.4839C14.761 14.0573 14.9369 13.605 15.0872 13.1785C14.4092 12.9776 13.8316 12.5005 13.3552 11.7976C12.878 11.0698 12.6274 10.2664 12.6274 9.3876C12.6274 8.55938 12.8531 7.83077 13.3054 7.15357C13.5817 6.80171 14.0083 6.35025 14.561 5.87308C14.3851 5.64734 14.1842 5.42081 14.0083 5.24568C13.8075 5.06976 13.6315 4.91953 13.4556 4.79341C12.7527 4.34114 11.9743 4.09051 11.1212 4.09051C10.6191 4.09051 9.9917 4.24153 9.26309 4.46726L9.26389 4.46887Z" fill="#060504"/>
</svg>
