<svg width="18" height="18" viewBox="0 0 18 18" fill="none" xmlns="http://www.w3.org/2000/svg">
<path d="M18.0006 9.19937C18.0006 8.45938 17.9394 7.91937 17.8067 7.35938H9.18423V10.6994H14.2455C14.1435 11.5294 13.5924 12.7794 12.3679 13.6194L12.3507 13.7312L15.077 15.801L15.2659 15.8194C17.0006 14.2494 18.0006 11.9394 18.0006 9.19937Z" fill="#4285F4"/>
<path d="M9.1835 17.9994C11.6631 17.9994 13.7447 17.1994 15.2652 15.8193L12.3671 13.6193C11.5917 14.1493 10.5508 14.5193 9.1835 14.5193C6.75496 14.5193 4.69372 12.9493 3.95896 10.7793L3.85126 10.7882L1.01644 12.9383L0.97937 13.0393C2.48957 15.9793 5.59164 17.9994 9.1835 17.9994Z" fill="#34A853"/>
<path d="M3.95917 10.7799C3.76529 10.2199 3.65309 9.61986 3.65309 8.99989C3.65309 8.37985 3.76529 7.77986 3.94897 7.21987L3.94383 7.10055L1.07348 4.91602L0.979574 4.95979C0.357148 6.17984 0 7.54985 0 8.99989C0 10.4499 0.357148 11.8199 0.979574 13.0399L3.95917 10.7799Z" fill="#FBBC05"/>
<path d="M9.18357 3.48C10.908 3.48 12.0713 4.21001 12.7346 4.82005L15.3264 2.34002C13.7346 0.89001 11.6631 0 9.18357 0C5.59164 0 2.48957 2.02 0.97937 4.95999L3.94877 7.22005C4.69375 5.05003 6.75496 3.48 9.18357 3.48Z" fill="#EB4335"/>
</svg>
