<svg width="100" height="99" viewBox="0 0 100 99" fill="none" xmlns="http://www.w3.org/2000/svg">
<path d="M19.1152 42.5547C19.6039 42.8502 19.6039 42.8502 19.8121 43.5902C19.9871 44.4271 20.162 45.2641 20.337 46.101C22.1111 46.101 23.8852 46.101 25.713 46.101C25.713 46.4911 25.713 46.8812 25.713 47.2831C25.1485 47.2831 24.5841 47.2831 24.0025 47.2831C23.761 53.9933 24.3133 58.6623 27.4236 64.4236C27.7041 64.9676 27.9841 65.512 28.2637 66.057C29.7035 68.8237 31.2608 71.4878 32.7996 74.1759C32.9206 60.864 32.9206 60.864 33.044 47.2831C31.4715 47.4294 31.4715 47.4294 29.8672 47.5786C29.2566 48.6865 28.9457 49.3243 28.6454 50.5339C28.5244 50.9727 28.5244 50.9727 28.401 51.4205C27.8366 51.4205 27.2721 51.4205 26.6905 51.4205C26.6905 49.5675 26.6905 47.7146 26.6905 45.8055C32.174 45.8055 37.6576 45.8055 43.3073 45.8055C43.3073 47.5609 43.3073 49.3163 43.3073 51.1249C42.8234 51.1249 42.3396 51.1249 41.8411 51.1249C41.7394 50.778 41.7394 50.778 41.6358 50.4242C41.5031 49.9756 41.5031 49.9756 41.3675 49.5179C41.2798 49.2197 41.1918 48.9215 41.1014 48.6141C40.9201 47.9028 40.9201 47.9028 40.6193 47.5786C40.045 47.5092 39.4693 47.4563 38.8936 47.4125C38.5781 47.3877 38.2629 47.3629 37.9379 47.3375C37.5718 47.3106 37.5718 47.3106 37.1982 47.2831C37.1351 51.5425 37.088 55.8016 37.0589 60.0613C37.045 62.0396 37.0259 64.0172 36.9953 65.9955C36.966 67.9058 36.9501 69.8157 36.9431 71.7266C36.9382 72.4539 36.9286 73.1812 36.914 73.9085C36.6767 78.2294 36.6767 78.2294 38.1111 81.9873C38.6656 82.6082 39.2606 83.1218 39.8862 83.6328C40.3471 84.097 40.8055 84.5643 41.2607 85.0365C41.6977 85.4567 42.1353 85.8755 42.5742 86.2925C42.7543 86.4713 42.9346 86.6498 43.1201 86.8339C47.2802 90.9009 52.0353 93.9108 57.4804 93.3851C59.0608 93.0547 60.3867 92.2612 61.3903 90.7254C62.0459 89.3928 62.5625 87.9962 63.1008 86.588C60.9235 86.588 58.7463 86.588 56.503 86.588C56.503 86.1979 56.503 85.8078 56.503 85.4059C56.9062 85.4059 57.3094 85.4059 57.7248 85.4059C57.6442 77.5065 57.5635 69.6071 57.4804 61.4683C56.4456 68.4176 56.4456 68.4176 55.4114 75.3669C55.211 76.7124 55.211 76.7124 55.117 77.3425C55.0515 77.7816 54.9862 78.2211 54.921 78.6602C54.822 79.3267 54.7225 79.9928 54.6231 80.6589C54.5671 81.0342 54.5112 81.4095 54.4537 81.7964C54.3401 82.5163 54.2165 83.2208 54.0593 83.9283C53.8174 83.9283 53.5755 83.9283 53.3262 83.9283C51.7134 75.8338 50.1006 67.7394 48.4389 59.3997C48.3583 67.9817 48.2777 76.5638 48.1946 85.4059C48.8397 85.4059 49.4848 85.4059 50.1495 85.4059C50.1495 85.796 50.1495 86.1861 50.1495 86.588C48.2948 86.588 46.44 86.588 44.5291 86.588C44.5291 86.1979 44.5291 85.8078 44.5291 85.4059C45.1742 85.4059 45.8194 85.4059 46.484 85.4059C46.4579 80.6432 46.4303 75.8805 46.4012 71.1181C46.3875 68.9067 46.3746 66.6953 46.3626 64.4842C46.3521 62.557 46.3408 60.6299 46.3284 58.7028C46.322 57.6824 46.3159 56.6616 46.3108 55.6409C46.3052 54.5025 46.2976 53.3638 46.2898 52.2252C46.2885 51.8859 46.2871 51.5464 46.2856 51.1964C46.2832 50.887 46.2807 50.5776 46.2783 50.2585C46.2768 49.9892 46.2751 49.7197 46.2736 49.4422C46.2617 48.7131 46.2617 48.7131 45.9953 47.8741C45.5115 47.7766 45.0276 47.6791 44.5291 47.5786C44.5291 46.9935 44.5291 46.4083 44.5291 45.8055C46.3838 45.8055 48.2386 45.8055 50.1495 45.8055C50.4897 47.2456 50.7655 48.5808 50.9816 50.0436C51.0275 50.3524 51.0275 50.3524 51.0744 50.6675C51.1744 51.3413 51.2733 52.0151 51.3723 52.6891C51.4422 53.1605 51.5121 53.6316 51.5822 54.1029C51.7655 55.3388 51.948 56.5747 52.1301 57.8109C52.4223 59.7924 52.7158 61.7733 53.0098 63.7545C53.1119 64.4452 53.2138 65.1361 53.3155 65.827C53.3781 66.2505 53.4406 66.674 53.5034 67.0975C53.5579 67.4666 53.6122 67.8357 53.6684 68.2161C53.7805 68.9315 53.9032 69.631 54.0593 70.3341C54.1275 69.8796 54.1275 69.8796 54.1969 69.4162C54.6238 66.5673 55.0515 63.7188 55.4803 60.8705C55.701 59.4062 55.9209 57.9415 56.1404 56.4769C56.3517 55.0643 56.5641 53.6523 56.7772 52.2402C56.8585 51.7003 56.9394 51.1601 57.0201 50.6202C57.1327 49.8663 57.2466 49.1127 57.3607 48.3591C57.3939 48.1336 57.4274 47.9081 57.4619 47.6756C57.697 46.1347 57.697 46.1347 57.9692 45.8055C58.3687 45.7798 58.769 45.7738 59.169 45.7765C59.4109 45.7777 59.6526 45.7786 59.9016 45.7795C60.156 45.7818 60.4104 45.7845 60.6723 45.7871C61.0555 45.7889 61.0555 45.7889 61.4462 45.791C62.0792 45.7945 62.7123 45.7993 63.3452 45.8055C63.3452 46.3906 63.3452 46.9758 63.3452 47.5786C63.1487 47.6153 62.952 47.6519 62.7494 47.6894C62.543 47.7503 62.3362 47.8112 62.1234 47.8741C61.8187 48.6115 61.845 49.1133 61.8404 49.9387C61.838 50.2505 61.8355 50.562 61.8331 50.8832C61.8316 51.2263 61.8304 51.5697 61.8289 51.9234C61.8265 52.2837 61.824 52.6442 61.8216 53.0154C61.815 54.0051 61.8099 54.9948 61.805 55.9846C61.7996 57.0183 61.7928 58.0521 61.7864 59.0858C61.7742 61.044 61.7632 63.0024 61.7527 64.9606C61.7405 67.1897 61.727 69.4189 61.7136 71.6477C61.6857 76.234 61.6596 80.8199 61.6347 85.4059C62.2798 85.4059 62.9249 85.4059 63.5896 85.4059C63.5793 88.2317 62.7651 90.582 61.2986 92.7757C59.3274 94.6488 57.5672 95.5711 55.0063 95.546C54.8244 95.5445 54.6429 95.5427 54.4557 95.541C49.0609 95.3997 44.1677 91.9001 40.1877 87.7146C39.1228 86.6699 38.3958 86.5156 37.0188 86.5304C36.5438 86.533 36.5438 86.533 36.0594 86.536C35.7264 86.541 35.393 86.546 35.06 86.5511C34.723 86.554 34.386 86.5567 34.049 86.559C33.2253 86.5661 32.4015 86.5759 31.5778 86.588C31.5778 86.1979 31.5778 85.8078 31.5778 85.4059C32.0616 85.4059 32.5455 85.4059 33.044 85.4059C33.1779 81.8883 33.2732 78.9608 31.245 76.2591C30.9937 75.9325 30.7413 75.6072 30.4882 75.283C29.8218 74.3701 29.2913 73.3547 28.7524 72.3289C28.5875 72.0174 28.5875 72.0174 28.4194 71.6997C26.8943 68.7761 25.5246 65.741 24.2468 62.6504C24.1662 70.1597 24.0856 77.669 24.0025 85.4059C24.567 85.4059 25.1314 85.4059 25.713 85.4059C25.713 85.796 25.713 86.1861 25.713 86.588C23.2938 86.588 20.8746 86.588 18.3821 86.588C18.3821 86.1979 18.3821 85.8078 18.3821 85.4059C18.9466 85.4059 19.511 85.4059 20.0926 85.4059C20.0926 72.8254 20.0926 60.2449 20.0926 47.2831C19.5282 47.2831 18.9637 47.2831 18.3821 47.2831C18.3821 46.893 18.3821 46.5029 18.3821 46.101C18.7853 46.101 19.1885 46.101 19.6039 46.101C19.4426 44.9307 19.2813 43.7604 19.1152 42.5547ZM36.9538 84.2238C36.9538 84.6139 36.9538 85.004 36.9538 85.4059C37.2764 85.3084 37.5989 85.2109 37.9313 85.1104C37.6893 85.0129 37.4474 84.9153 37.1982 84.8149C37.1175 84.6198 37.0369 84.4248 36.9538 84.2238Z" fill="white"/>
<path d="M44.5291 45.8069C46.3838 45.8069 48.2385 45.8069 50.1494 45.8069C50.4896 47.247 50.7655 48.5822 50.9815 50.045C51.0121 50.2507 51.0428 50.4567 51.0744 50.6689C51.1743 51.3427 51.2733 52.0165 51.3722 52.6906C51.4421 53.1619 51.512 53.633 51.5822 54.1044C51.7654 55.3403 51.948 56.5761 52.13 57.8123C52.4223 59.7938 52.7158 61.7747 53.0097 63.7559C53.1119 64.4466 53.2138 65.1375 53.3154 65.8285C53.378 66.2519 53.4405 66.6754 53.5034 67.0989C53.5578 67.468 53.6121 67.8371 53.6683 68.2175C53.7805 68.933 53.9031 69.6325 54.0593 70.3355C54.1047 70.0326 54.1499 69.7297 54.1969 69.4176C54.6238 66.5687 55.0514 63.7202 55.4803 60.8719C55.7009 59.4076 55.9209 57.9429 56.1403 56.4783C56.3517 55.0657 56.564 53.6537 56.7771 52.2417C56.8585 51.7017 56.9394 51.1615 57.02 50.6216C57.1327 49.8677 57.2465 49.1141 57.3607 48.3605C57.3939 48.135 57.4274 47.9096 57.4618 47.677C57.6969 46.1361 57.6969 46.1361 57.9691 45.8069C58.3687 45.7812 58.7689 45.7753 59.169 45.7779C59.5316 45.7794 59.5316 45.7794 59.9016 45.7809C60.1559 45.7832 60.4103 45.7859 60.6723 45.7886C61.0554 45.7903 61.0554 45.7903 61.4462 45.7924C62.0791 45.796 62.7122 45.8007 63.3451 45.8069C63.3451 46.392 63.3451 46.9772 63.3451 47.58C63.1487 47.6167 62.952 47.6533 62.7494 47.6909C62.5429 47.7517 62.3362 47.8126 62.1233 47.8756C61.8186 48.6129 61.845 49.1147 61.8403 49.9401C61.8379 50.2519 61.8355 50.5634 61.833 50.8846C61.8315 51.2277 61.8303 51.5711 61.8289 51.9249C61.8264 52.2851 61.824 52.6456 61.8215 53.0168C61.8149 54.0065 61.8098 54.9963 61.8049 55.986C61.7995 57.0197 61.7927 58.0535 61.7863 59.0872C61.7741 61.0454 61.7631 63.0038 61.7526 64.962C61.7404 67.1911 61.727 69.4203 61.7135 71.6491C61.6857 76.2354 61.6595 80.8214 61.6346 85.4073C62.2797 85.4073 62.9248 85.4073 63.5895 85.4073C63.5895 85.7974 63.5895 86.1875 63.5895 86.5894C61.2509 86.5894 58.9124 86.5894 56.5029 86.5894C56.5029 86.1993 56.5029 85.8092 56.5029 85.4073C56.9061 85.4073 57.3093 85.4073 57.7248 85.4073C57.6441 77.5079 57.5635 69.6085 57.4804 61.4697C56.4455 68.419 56.4455 68.419 55.4114 75.3683C55.211 76.7138 55.211 76.7138 55.1169 77.3439C55.0514 77.7831 54.9862 78.2225 54.9209 78.6617C54.8219 79.3281 54.7225 79.9942 54.623 80.6603C54.5671 81.0356 54.5111 81.4109 54.4537 81.7978C54.3401 82.5177 54.2164 83.2222 54.0593 83.9297C53.8174 83.9297 53.5754 83.9297 53.3262 83.9297C51.7134 75.8353 50.1006 67.7408 48.4389 59.4011C48.3582 67.9831 48.2776 76.5652 48.1945 85.4073C48.8396 85.4073 49.4848 85.4073 50.1494 85.4073C50.1494 85.7974 50.1494 86.1875 50.1494 86.5894C48.2947 86.5894 46.44 86.5894 44.5291 86.5894C44.5291 86.1993 44.5291 85.8092 44.5291 85.4073C45.1742 85.4073 45.8193 85.4073 46.484 85.4073C46.4578 80.6446 46.4302 75.8819 46.4011 71.1195C46.3874 68.9081 46.3745 66.6967 46.3625 64.4856C46.352 62.5585 46.3408 60.6313 46.3283 58.7042C46.322 57.6838 46.3158 56.663 46.3107 55.6423C46.3051 54.5039 46.2975 53.3653 46.2897 52.2266C46.2885 51.8873 46.287 51.5478 46.2855 51.1979C46.2831 50.8885 46.2807 50.579 46.2782 50.2599C46.2768 49.9906 46.275 49.7211 46.2736 49.4436C46.2616 48.7146 46.2616 48.7146 45.9952 47.8756C45.2695 47.7293 45.2695 47.7293 44.5291 47.58C44.5291 46.9949 44.5291 46.4098 44.5291 45.8069Z" fill="#FE2727"/>
<path d="M1.03247 45.8066C3.37104 45.8066 5.70961 45.8066 8.11905 45.8066C8.19969 46.2943 8.28033 46.7819 8.36342 47.2843C7.79893 47.2843 7.23445 47.2843 6.65286 47.2843C6.65286 53.0382 6.65286 58.792 6.65286 64.7203C8.26567 64.7203 9.87848 64.7203 11.5402 64.7203C11.5402 58.9664 11.5402 53.2125 11.5402 47.2843C10.9757 47.2843 10.4112 47.2843 9.8296 47.2843C9.8296 46.7967 9.8296 46.309 9.8296 45.8066C12.2488 45.8066 14.668 45.8066 17.1605 45.8066C17.1605 46.2943 17.1605 46.7819 17.1605 47.2843C16.5961 47.2843 16.0316 47.2843 15.45 47.2843C15.45 59.8648 15.45 72.4453 15.45 85.4071C16.0145 85.4071 16.579 85.4071 17.1605 85.4071C17.1605 85.7972 17.1605 86.1873 17.1605 86.5892C14.7413 86.5892 12.3221 86.5892 9.8296 86.5892C9.8296 86.1991 9.8296 85.809 9.8296 85.4071C10.3941 85.4071 10.9586 85.4071 11.5402 85.4071C11.5402 79.1656 11.5402 72.9241 11.5402 66.4934C9.92735 66.4934 8.31454 66.4934 6.65286 66.4934C6.65286 72.7349 6.65286 78.9764 6.65286 85.4071C7.21734 85.4071 7.78183 85.4071 8.36342 85.4071C8.36342 85.7972 8.36342 86.1873 8.36342 86.5892C5.9442 86.5892 3.52499 86.5892 1.03247 86.5892C1.03247 86.1991 1.03247 85.809 1.03247 85.4071C1.59695 85.4071 2.16144 85.4071 2.74302 85.4071C2.74302 72.8266 2.74302 60.246 2.74302 47.2843C2.17854 47.2843 1.61406 47.2843 1.03247 47.2843C1.03247 46.7967 1.03247 46.309 1.03247 45.8066Z" fill="#FF2828"/>
<path d="M7.38567 0C8.44108 0.166972 8.82718 0.812696 9.46839 1.7699C10.0326 2.69904 10.4911 3.66925 10.929 4.69147C11.0218 4.90602 11.1147 5.12057 11.2105 5.34163C12.2502 7.81252 13.4948 10.7882 13.4948 13.5942C13.7687 13.6211 13.7687 13.6211 14.0485 13.6486C14.289 13.6731 14.5297 13.6979 14.7777 13.7236C15.016 13.7476 15.254 13.7715 15.4993 13.7963C16.0765 13.8752 16.6029 13.9943 17.1603 14.1852C17.1603 13.7951 17.1603 13.405 17.1603 13.0031C18.9788 12.895 18.9788 12.895 19.6039 13.3909C19.8483 13.8897 19.8483 13.8897 19.8483 14.7763C20.1132 14.8123 20.3781 14.8487 20.651 14.8859C26.5058 15.7941 26.5058 15.7941 27.8972 17.387C28.6063 18.533 29.6229 20.3889 29.6229 21.8689C27.3593 21.6629 25.1395 21.2492 22.9019 20.797C21.3721 20.4997 19.9314 20.3298 18.3821 20.3913C18.3014 20.1962 18.2208 20.0012 18.1377 19.8002C17.6346 19.6731 17.6346 19.6731 17.0532 19.6341C15.9841 19.5322 15.9841 19.5322 15.4497 19.2092C15.4895 19.4042 15.5294 19.599 15.5704 19.7999C15.9832 21.8225 16.3954 23.8454 16.8069 25.8685C16.9609 26.6242 17.1148 27.3799 17.2692 28.1355C17.4904 29.2195 17.7111 30.3038 17.9315 31.3881C18.0358 31.8973 18.0358 31.8973 18.1421 32.4171C18.2057 32.7307 18.2692 33.0442 18.3349 33.3672C18.3914 33.6441 18.4478 33.921 18.5057 34.2062C18.6265 34.872 18.6265 34.872 18.6265 35.4631C18.8632 35.4935 19.1003 35.524 19.3444 35.5553C22.1732 36.0899 22.1732 36.0899 22.9478 37.2744C23.7581 39.0041 23.7581 39.0041 23.7581 39.896C22.17 39.7435 20.664 39.4624 19.1152 39.0094C19.1152 39.497 19.1152 39.9846 19.1152 40.487C18.8733 40.487 18.6313 40.487 18.3821 40.487C18.3014 40.292 18.2208 40.0969 18.1377 39.896C17.0371 40.1483 16.4198 40.9235 15.633 41.8352C15.4299 42.066 15.4299 42.066 15.2225 42.3013C14.8894 42.6795 14.5585 43.0607 14.2279 43.4423C13.5964 42.2968 13.5828 41.5033 13.593 40.1486C13.8149 38.8669 14.4187 38.2856 15.2425 37.488C15.8075 36.8033 15.8568 36.4167 15.9384 35.4631C15.7955 34.7562 15.7955 34.7562 15.5213 34.0567C15.4243 33.7866 15.3273 33.5165 15.2273 33.2381C15.0661 32.8063 15.0661 32.8063 14.9018 32.366C14.7936 32.0675 14.6853 31.7693 14.5737 31.462C14.2274 30.5098 13.8765 29.5602 13.5253 28.6104C13.2905 27.9677 13.0562 27.3243 12.8218 26.6809C11.85 23.9594 11.85 23.9594 10.8068 21.2778C10.483 21.5873 10.1631 21.9023 9.84447 22.22C9.66608 22.3946 9.48745 22.5696 9.30345 22.7496C8.77928 23.4426 8.69033 23.9033 8.60749 24.8242C8.42447 24.8546 8.24144 24.885 8.05279 24.9164C7.32067 25.1395 7.02914 25.3889 6.48445 26.0063C6.31731 26.1921 6.15016 26.378 5.97764 26.5695C5.7973 26.7737 5.61671 26.9779 5.43075 27.1884C5.02413 27.6325 4.61677 28.0758 4.20893 28.5182C3.60975 29.1702 3.01081 29.8221 2.41431 30.4773C2.24057 30.6658 2.06658 30.8544 1.88746 31.0485C1.73376 31.2167 1.58005 31.3845 1.4217 31.5577C1.03219 31.9168 1.03219 31.9168 0.543456 31.9168C0.460861 31.3568 0.379488 30.7964 0.299091 30.2358C0.25364 29.924 0.208432 29.612 0.161758 29.2904C-0.0884712 27.1381 -0.088471 27.1381 0.449865 26.2164C0.631917 25.9885 0.813968 25.7607 1.00164 25.526C1.19982 25.2707 1.398 25.0157 1.60204 24.7526C1.93316 24.3386 2.26452 23.9249 2.59808 23.5135C2.93921 23.0918 3.27619 22.665 3.61317 22.2383C3.82014 21.9839 4.02712 21.7294 4.24045 21.4673C4.79272 20.5246 4.72967 20.0405 4.69766 18.9136C5.11552 18.2301 5.57028 17.9242 6.16385 17.436C6.32513 17.436 6.48641 17.436 6.65258 17.436C6.65258 17.7286 6.65258 18.0212 6.65258 18.3226C6.96341 17.9966 7.274 17.6704 7.5841 17.3438C7.75711 17.1621 7.93012 16.9803 8.10826 16.793C8.53467 16.3325 8.93861 15.8585 9.34059 15.3673C9.29514 15.2086 9.24969 15.0496 9.20277 14.8862C8.73383 13.2209 8.33185 11.5468 7.96604 9.84455C7.91301 9.6037 7.86023 9.36284 7.80573 9.1146C7.33729 6.95165 7.10123 4.94976 7.11076 2.71529C7.10929 2.3713 7.10929 2.3713 7.10783 2.0208C7.11027 0.333057 7.11027 0.333057 7.38567 0Z" fill="white"/>
<path d="M84.605 45.8066C86.2178 45.8066 87.8306 45.8066 89.4923 45.8066C89.9637 47.3268 90.4126 48.824 90.8246 50.3654C90.8795 50.5702 90.9343 50.7753 90.991 50.9866C91.1698 51.6548 91.3482 52.3233 91.5264 52.9915C91.6512 53.4587 91.7764 53.9256 91.9012 54.3928C92.2284 55.6148 92.5547 56.8374 92.8811 58.0597C93.2149 59.3101 93.5495 60.5599 93.8838 61.8099C94.5382 64.2575 95.1921 66.7053 95.8458 69.1532C95.8741 66.4329 95.8959 63.7125 95.9091 60.9919C95.9154 59.7286 95.9242 58.4655 95.9379 57.2024C95.9511 55.9837 95.9584 54.7652 95.9616 53.5465C95.964 53.081 95.9684 52.6156 95.975 52.1504C95.9838 51.4994 95.9851 50.8489 95.9846 50.1976C95.9872 49.827 95.9899 49.4561 95.9926 49.074C95.922 48.1174 95.922 48.1174 95.2568 47.6194C95.0479 47.5089 94.839 47.3983 94.6239 47.2843C94.4627 47.1867 94.3014 47.0892 94.1352 46.9887C94.1352 46.5986 94.1352 46.2086 94.1352 45.8066C96.0706 45.8066 98.0059 45.8066 100 45.8066C100 46.1967 100 46.5868 100 46.9887C99.4355 47.0863 98.871 47.1838 98.2894 47.2843C98.2884 47.4832 98.2875 47.6823 98.2862 47.8871C98.2611 52.7237 98.2344 57.5603 98.2066 62.3966C98.1929 64.7354 98.1799 67.0744 98.168 69.4132C98.1575 71.4512 98.1462 73.4891 98.1337 75.5274C98.1274 76.6069 98.1213 77.6865 98.1162 78.766C98.1105 79.9697 98.103 81.1734 98.0951 82.3774C98.0939 82.737 98.0925 83.097 98.091 83.4678C98.0873 83.9575 98.0873 83.9575 98.0837 84.4573C98.0822 84.7421 98.0805 85.0273 98.079 85.3208C98.045 85.9981 98.045 85.9981 97.8007 86.5892C97.1133 86.6814 97.1133 86.6814 96.3345 86.5892C95.6505 85.4819 95.3162 84.2309 94.969 82.9291C94.9106 82.7146 94.8519 82.5 94.7916 82.2789C94.5995 81.5723 94.4094 80.8652 94.2193 80.158C94.0851 79.6635 93.951 79.1691 93.8168 78.675C93.4637 77.3741 93.1125 76.0726 92.7619 74.7708C92.4769 73.7146 92.1906 72.6587 91.9042 71.6031C91.5603 70.3359 91.2172 69.0687 90.8744 67.8014C90.8099 67.5627 90.7454 67.3242 90.6787 67.0783C90.4937 66.3941 90.3092 65.7097 90.1247 65.0253C90.0714 64.8284 90.0179 64.6313 89.9629 64.4283C89.5404 62.8573 89.1521 61.2801 88.7592 59.6963C88.6785 68.1809 88.5979 76.6654 88.5148 85.4071C89.1599 85.4071 89.8051 85.4071 90.4697 85.4071C90.4697 85.7972 90.4697 86.1873 90.4697 86.5892C88.5344 86.5892 86.599 86.5892 84.605 86.5892C84.605 86.1991 84.605 85.809 84.605 85.4071C85.2501 85.4071 85.8952 85.4071 86.5599 85.4071C86.4793 72.9241 86.3986 60.4411 86.3155 47.5798C85.7511 47.4823 85.1866 47.3847 84.605 47.2843C84.605 46.7967 84.605 46.309 84.605 45.8066Z" fill="#FF2828"/>
<path d="M71.654 45.8073C72.4939 45.7902 73.334 45.7795 74.1739 45.7704C74.4126 45.7654 74.6511 45.7603 74.8969 45.7553C75.2408 45.7526 75.2408 45.7526 75.5914 45.7497C75.8026 45.7464 76.0137 45.7435 76.2314 45.7402C76.7856 45.8073 76.7856 45.8073 77.5187 46.3984C77.6891 47.0586 77.6891 47.0586 77.8017 47.8976C77.8459 48.215 77.8902 48.5324 77.9356 48.8592C78.0036 49.3841 78.0036 49.3841 78.073 49.9193C78.1233 50.2863 78.1734 50.6533 78.225 51.0316C78.3628 52.04 78.4964 53.0486 78.6294 54.0578C78.7689 55.1131 78.9121 56.1679 79.0548 57.2226C79.2943 58.9946 79.5311 60.7668 79.7664 62.5397C80.0687 64.8146 80.3741 67.089 80.6811 69.3631C80.945 71.3177 81.2074 73.2729 81.4694 75.2278C81.5256 75.6474 81.582 76.0671 81.6382 76.4867C81.8237 77.8671 82.0077 79.2478 82.191 80.6285C82.2379 80.9769 82.2846 81.3254 82.333 81.6844C82.375 82.0036 82.417 82.3228 82.4605 82.6514C82.4974 82.9286 82.5343 83.2055 82.5722 83.491C82.6504 84.2257 82.6504 84.2257 82.6504 85.4078C82.973 85.4078 83.2955 85.4078 83.6279 85.4078C83.6279 85.7979 83.6279 86.1879 83.6279 86.5899C81.5312 86.5899 79.4346 86.5899 77.2744 86.5899C77.2744 86.1998 77.2744 85.8097 77.2744 85.4078C77.5969 85.4078 77.9195 85.4078 78.2518 85.4078C78.0896 83.8022 77.9163 82.1992 77.7328 80.5972C77.672 80.0528 77.6143 79.5079 77.5595 78.9626C77.325 75.4122 77.325 75.4122 75.8216 72.5222C75.3419 72.1165 75.3419 72.1165 74.8307 71.8136C74.6453 71.6918 74.4595 71.5698 74.2684 71.4445C72.9765 70.6436 71.6124 70.3138 70.1878 70.0404C70.1577 70.3702 70.1277 70.7 70.0966 71.0396C69.9464 72.4883 69.7022 73.9038 69.4471 75.3297C69.3992 75.6007 69.3513 75.8714 69.302 76.1504C69.2013 76.7181 69.1001 77.2858 68.9987 77.8535C68.8433 78.7247 68.6893 79.5965 68.5354 80.468C68.4372 81.021 68.3389 81.5739 68.2405 82.1268C68.1945 82.3881 68.1483 82.649 68.1009 82.918C68.0577 83.1588 68.0144 83.3997 67.9699 83.6476C67.9321 83.8598 67.8944 84.072 67.8553 84.2904C67.7441 84.8167 67.7441 84.8167 67.4998 85.4078C67.903 85.4078 68.3062 85.4078 68.7216 85.4078C68.7216 85.7979 68.7216 86.1879 68.7216 86.5899C67.4314 86.5899 66.1411 86.5899 64.8118 86.5899C64.8118 86.1998 64.8118 85.8097 64.8118 85.4078C65.1343 85.3102 65.4569 85.2127 65.7892 85.1122C66.1384 83.2348 66.4862 81.357 66.8332 79.4792C66.9514 78.84 67.0699 78.2011 67.1889 77.5621C67.3595 76.6448 67.5289 75.7269 67.6982 74.8093C67.7517 74.523 67.8052 74.2366 67.8602 73.9417C67.9093 73.6754 67.9582 73.4091 68.0085 73.1349C68.0738 72.7835 68.0738 72.7835 68.14 72.425C68.2549 71.7719 68.2549 71.7719 68.2329 70.927C68.0975 71.055 67.9619 71.1829 67.8223 71.3147C67.6454 71.4793 67.4683 71.6439 67.286 71.8136C67.1103 71.9782 66.9343 72.1428 66.7532 72.3124C66.278 72.7002 66.278 72.7002 65.7892 72.7002C65.8647 71.7583 65.9244 71.3393 66.5213 70.7006C66.7183 70.5561 66.915 70.4113 67.1181 70.2621C67.4123 70.0404 67.4123 70.0404 67.7126 69.8141C68.0435 69.5821 68.3795 69.3607 68.7216 69.1538C68.9039 68.4863 68.9039 68.4863 69.0346 67.662C69.0908 67.3432 69.1473 67.0243 69.2052 66.6957C69.2646 66.3472 69.324 65.9988 69.3851 65.6397C69.4789 65.1031 69.4789 65.1031 69.5749 64.5555C69.7421 63.5994 69.9073 62.6428 70.0717 61.6859C70.3017 60.3513 70.5348 59.0176 70.7674 57.6839C70.8911 56.9746 71.014 56.2651 71.1364 55.5552C71.1934 55.2251 71.2505 54.895 71.3094 54.5552C71.3647 54.2342 71.4201 53.913 71.4771 53.5823C71.718 52.2498 71.9939 50.9282 72.2752 49.6072C72.4636 48.1866 72.1141 47.1056 71.654 45.8073ZM73.8533 49.9447C73.4381 52.1206 73.0251 54.2972 72.6138 56.4743C72.4738 57.214 72.3333 57.9534 72.1921 58.6928C71.9888 59.7591 71.7874 60.8256 71.5863 61.8928C71.5232 62.2199 71.4604 62.5474 71.3957 62.8846C71.0416 64.7753 70.7892 66.6283 70.6765 68.5628C71.1007 68.5578 71.1007 68.5578 71.5338 68.5525C71.9098 68.5495 72.2859 68.5468 72.662 68.5445C72.8479 68.5418 73.0337 68.5394 73.2252 68.5368C73.4078 68.5359 73.5906 68.535 73.7787 68.5338C74.0282 68.5315 74.0282 68.5315 74.2829 68.5291C74.9661 68.5711 75.6242 68.7111 76.2969 68.8583C76.1442 65.599 75.7925 62.376 75.4346 59.1423C75.3341 58.233 75.2364 57.3231 75.1386 56.4134C75.0746 55.8307 75.0106 55.2479 74.9463 54.6651C74.9175 54.3953 74.8886 54.1258 74.8591 53.8477C74.7056 52.4841 74.5065 51.2385 74.0976 49.9447C74.017 49.9447 73.9363 49.9447 73.8533 49.9447Z" fill="#FF2828"/>
<path d="M26.6904 45.8066C32.174 45.8066 37.6575 45.8066 43.3072 45.8066C43.3072 47.5621 43.3072 49.3175 43.3072 51.1261C42.8234 51.1261 42.3396 51.1261 41.841 51.1261C41.7734 50.895 41.7057 50.6636 41.6358 50.4254C41.5031 49.9768 41.5031 49.9768 41.3675 49.519C41.2358 49.0716 41.2358 49.0716 41.1014 48.6153C40.92 47.904 40.92 47.904 40.6192 47.5798C40.045 47.5103 39.4692 47.4574 38.8935 47.4137C38.4204 47.3765 38.4204 47.3765 37.9378 47.3386C37.5717 47.3118 37.5717 47.3118 37.1981 47.2843C37.1986 47.4991 37.1991 47.714 37.1998 47.9353C37.2064 50.692 37.2108 53.4486 37.2133 56.2056C37.2135 56.4258 37.2138 56.6459 37.214 56.8729C37.2206 64.6148 37.1444 72.349 36.9538 80.0876C35.9186 79.0627 34.9983 78.0473 34.1741 76.763C33.9292 76.3859 33.9292 76.3859 33.6798 76.0011C32.921 74.7569 33.0109 73.6744 33.0161 72.1782C33.0161 71.9098 33.0161 71.6418 33.0161 71.3655C33.0163 70.4765 33.0183 69.5873 33.02 68.6984C33.0205 68.0831 33.0209 67.4675 33.0212 66.8522C33.0219 65.2307 33.0244 63.6088 33.0271 61.987C33.0297 60.3332 33.0307 58.6791 33.0319 57.0251C33.0346 53.7781 33.0388 50.5312 33.0439 47.2843C32.5307 47.2949 32.0178 47.3162 31.5051 47.3419C31.2195 47.3528 30.9338 47.3635 30.6396 47.3744C29.8315 47.4908 29.8315 47.4908 29.3833 48.2654C29.0759 49.0131 28.8438 49.7359 28.6453 50.5351C28.5647 50.8276 28.4841 51.1202 28.401 51.4216C27.8365 51.4216 27.272 51.4216 26.6904 51.4216C26.6904 49.5687 26.6904 47.7157 26.6904 45.8066Z" fill="#FE2727"/>
<path d="M20.0926 48.4648C20.7148 49.2173 20.7742 49.7808 20.9939 50.8107C21.5571 53.2931 22.2905 55.6842 23.0446 58.0901C23.156 58.4456 23.156 58.4456 23.2694 58.8082C23.3933 59.1617 23.5172 59.5151 23.6447 59.8795C24.0421 61.168 24.1022 62.3011 24.0858 63.6655C24.0858 64.0204 24.0858 64.0204 24.086 64.3827C24.0856 65.1567 24.0799 65.9304 24.0741 66.7044C24.0726 67.2443 24.0716 67.7842 24.0709 68.3242C24.0682 69.7389 24.0609 71.1535 24.0528 72.5682C24.0452 74.0145 24.0421 75.4608 24.0381 76.9068C24.0303 79.7397 24.0179 82.5726 24.0025 85.4056C24.567 85.4056 25.1314 85.4056 25.713 85.4056C25.713 85.7957 25.713 86.1857 25.713 86.5877C23.2938 86.5877 20.8746 86.5877 18.3821 86.5877C18.3821 86.1976 18.3821 85.8075 18.3821 85.4056C18.9466 85.4056 19.511 85.4056 20.0926 85.4056C20.0926 73.2151 20.0926 61.0247 20.0926 48.4648Z" fill="#FE2727"/>
<path d="M33.0441 79.2012C35.0452 81.2755 35.0452 81.2755 35.9613 82.4703C36.1499 82.7114 36.3386 82.9526 36.5329 83.2011C37.0091 84.025 37.048 84.4249 36.9539 85.4072C37.4377 85.4072 37.9216 85.4072 38.4201 85.4072C38.5007 85.7973 38.5814 86.1874 38.6645 86.5893C36.3259 86.5893 33.9873 86.5893 31.5779 86.5893C31.5779 86.1992 31.5779 85.8091 31.5779 85.4072C32.0617 85.4072 32.5456 85.4072 33.0441 85.4072C33.0441 83.3592 33.0441 81.3112 33.0441 79.2012Z" fill="#FD2727"/>
<path d="M20.3369 46.1016C22.111 46.1016 23.8851 46.1016 25.7129 46.1016C25.7129 46.4917 25.7129 46.8818 25.7129 47.2837C25.1485 47.2837 24.584 47.2837 24.0024 47.2837C24.0024 50.4044 24.0024 53.5252 24.0024 56.7405C23.4462 56.0679 23.26 55.52 22.9572 54.644C22.8517 54.3393 22.7464 54.0347 22.6379 53.7205C22.5286 53.4005 22.4196 53.0807 22.307 52.7509C22.199 52.44 22.0907 52.1291 21.9793 51.8088C21.8735 51.5011 21.7679 51.1932 21.6589 50.8761C21.5636 50.5983 21.4681 50.3205 21.3698 50.0341C20.9742 48.7444 20.6636 47.419 20.3369 46.1016Z" fill="#FC2727"/>
<path d="M93.6467 92.2046C94.0499 92.2046 94.4531 92.2046 94.8686 92.2046C94.9492 92.7897 95.0298 93.3749 95.1129 93.9777C95.3245 93.6852 95.5364 93.3926 95.7544 93.0911C96.3648 92.3423 96.4982 92.2155 97.4038 92.0938C97.6155 92.1304 97.8273 92.167 98.0453 92.2046C97.7645 92.9685 97.4828 93.4886 97.0219 94.1255C96.5212 94.7875 96.5212 94.7875 96.6268 95.4137C96.8643 96.1773 97.1886 96.7793 97.5717 97.4502C97.7056 97.6863 97.8395 97.9224 97.9776 98.1659C98.0805 98.3441 98.1836 98.5223 98.2897 98.7061C97.4955 98.7983 97.4955 98.7983 96.5791 98.7061C95.9833 98.0043 95.9833 98.0043 95.6016 97.2285C95.6016 97.0335 95.6016 96.8384 95.6016 96.6375C95.3597 96.7837 95.3597 96.7837 95.1129 96.933C94.9521 97.8281 94.9521 97.8281 94.8686 98.7061C94.4654 98.7061 94.0621 98.7061 93.6467 98.7061C93.6467 96.5606 93.6467 94.4151 93.6467 92.2046Z" fill="white"/>
<path d="M76.0521 92.2031C76.5359 92.2031 77.0198 92.2031 77.5183 92.2031C77.8054 93.1196 78.0896 94.0372 78.3736 94.9551C78.4552 95.2157 78.5368 95.4761 78.6209 95.7441C78.6981 95.9947 78.7751 96.2453 78.8547 96.5033C78.9622 96.8491 78.9622 96.8491 79.0717 97.2019C79.2288 97.8181 79.2288 97.8181 79.2288 98.7047C78.745 98.7047 78.2612 98.7047 77.7627 98.7047C77.682 98.4121 77.6014 98.1195 77.5183 97.8181C76.9538 97.7206 76.3893 97.6231 75.8077 97.5226C75.7271 97.9127 75.6465 98.3028 75.5634 98.7047C75.1602 98.7047 74.757 98.7047 74.3416 98.7047C74.4979 97.1863 74.8784 95.8712 75.3342 94.4565C75.4031 94.239 75.472 94.0215 75.5429 93.7975C75.7115 93.2652 75.8815 92.7342 76.0521 92.2031ZM76.5408 95.1584C76.5408 95.451 76.5408 95.7435 76.5408 96.045C76.7021 96.045 76.8634 96.045 77.0296 96.045C77.0296 95.7524 77.0296 95.4598 77.0296 95.1584C76.8683 95.1584 76.707 95.1584 76.5408 95.1584Z" fill="white"/>
<path d="M87.5375 92.2019C88.2706 92.793 88.2706 92.793 88.7594 93.384C88.6787 93.6766 88.5981 93.9692 88.515 94.2706C88.2731 94.3681 88.0312 94.4657 87.7819 94.5661C87.54 94.3711 87.2981 94.1761 87.0488 93.9751C86.2852 93.9257 86.2852 93.9257 85.5826 93.9751C85.3495 95.206 85.3495 95.206 85.5064 96.4315C85.8008 96.9697 85.8008 96.9697 86.3006 97.1889C86.8809 97.293 86.8809 97.293 87.5375 96.6348C88.1944 96.7456 88.1944 96.7456 88.7594 96.9304C88.7288 97.4658 88.7288 97.4658 88.515 98.1125C87.6922 98.7996 87.1813 98.999 86.1784 98.999C85.1357 98.6323 84.7447 98.2986 84.1164 97.2259C83.8088 95.9578 83.7423 94.9462 84.1624 93.7165C85.1469 92.3204 85.9895 91.8497 87.5375 92.2019Z" fill="white"/>
<path d="M68.233 92.2031C68.6362 92.2031 69.0394 92.2031 69.4548 92.2031C69.469 93.1204 69.4778 94.0377 69.4854 94.9551C69.4895 95.2157 69.4937 95.4761 69.4978 95.7441C69.4993 95.9947 69.501 96.2453 69.5025 96.5033C69.5052 96.7338 69.5076 96.9643 69.5103 97.2019C69.4548 97.8181 69.4548 97.8181 68.9661 98.7047C68.126 98.9447 68.126 98.9447 67.2556 99.0002C67.0136 98.8052 66.7717 98.6101 66.5225 98.4092C66.6031 98.0191 66.6837 97.629 66.7668 97.2271C67.17 97.2271 67.5732 97.2271 67.9886 97.2271C68.0693 95.5692 68.1499 93.9113 68.233 92.2031Z" fill="white"/>
<path d="M19.1152 42.5547C19.6039 42.8502 19.6039 42.8502 19.8121 43.3984C20.1787 44.7351 20.4279 45.8548 20.337 47.2831C19.6919 47.2831 19.0468 47.2831 18.3821 47.2831C18.3821 46.893 18.3821 46.5029 18.3821 46.101C18.7853 46.101 19.1885 46.101 19.6039 46.101C19.4426 44.9307 19.2813 43.7604 19.1152 42.5547Z" fill="white"/>
<path d="M18.3821 46.1016C18.8659 46.1016 19.3498 46.1016 19.8483 46.1016C19.9289 46.4917 20.0095 46.8818 20.0926 47.2837C19.5282 47.2837 18.9637 47.2837 18.3821 47.2837C18.3821 46.8936 18.3821 46.5035 18.3821 46.1016Z" fill="#F22627"/>
</svg>
